PathFileType  4	(X/Y/Z) C:\Users\antoi\Documents\MyRepositories\mobilecap\ResultsAnalysis
DataRate	CameraRate	NumFrames	NumMarkers	Units	OrigDataRate	OrigDataStartFrame	OrigNumFrames
100.0	100.0	6	51	mm	100.0	115	131
Frame#	Time	r_knee			r_shank_antsup			r_ankle			r_calc			r_5meta			r_toe			L_knee			L_shank_antsup			L_ankle			L_calc			L_5meta			L_toe			r_sh2			r_sh3			r_sh4			L_sh2			L_sh3			r_thigh1			r_thigh2			r_thigh3			r_thigh4			r_thigh5			L_thigh1			L_thigh2			L_thigh3			L_thigh4			r.ASIS			r.PSIS			L.ASIS			L.PSIS			C7			R_Shoulder			L_Shoulder			R_Sternum			L_Sternum			R_humerus			R_elbow_med			R_elbow_lat			R_forearm			R_wrist_radius			R_wrist_ulna			L_humerus			L_elbow_med			L_elbow_lat			L_forearm			L_wrist_radius			L_wrist_ulna			R_HJC			L_HJC			R_HJC_reg			L_HJC_reg			
		X1	Y1	Z1	X2	Y2	Z2	X3	Y3	Z3	X4	Y4	Z4	X5	Y5	Z5	X6	Y6	Z6	X7	Y7	Z7	X8	Y8	Z8	X9	Y9	Z9	X10	Y10	Z10	X11	Y11	Z11	X12	Y12	Z12	X13	Y13	Z13	X14	Y14	Z14	X15	Y15	Z15	X16	Y16	Z16	X17	Y17	Z17	X18	Y18	Z18	X19	Y19	Z19	X20	Y20	Z20	X21	Y21	Z21	X22	Y22	Z22	X23	Y23	Z23	X24	Y24	Z24	X25	Y25	Z25	X26	Y26	Z26	X27	Y27	Z27	X28	Y28	Z28	X29	Y29	Z29	X30	Y30	Z30	X31	Y31	Z31	X32	Y32	Z32	X33	Y33	Z33	X34	Y34	Z34	X35	Y35	Z35	X36	Y36	Z36	X37	Y37	Z37	X38	Y38	Z38	X39	Y39	Z39	X40	Y40	Z40	X41	Y41	Z41	X42	Y42	Z42	X43	Y43	Z43	X44	Y44	Z44	X45	Y45	Z45	X46	Y46	Z46	X47	Y47	Z47	X48	Y48	Z48	X49	Y49	Z49	X50	Y50	Z50	X51	Y51	Z51	

115	1.14000000	1353.13743	460.33517	-89.13884	1403.09483	413.79557	-92.58149	1449.76370	82.21649	-111.91932	1406.50862	44.45687	-157.81285	1568.11153	67.52504	-92.36665	1599.12839	108.05899	-143.11205	1099.05235	460.60714	-334.50821	1091.68753	366.03890	-315.92884	884.20185	132.76945	-315.84303	812.84643	121.92160	-277.62837	958.48023	41.66611	-334.03203	1005.22643	43.12056	-275.47359	1420.77006	302.61479	-87.31652	1331.31116	402.39233	-66.10922	1340.37822	285.70844	-69.05713	1037.75994	418.25287	-364.68832	969.01659	316.39276	-372.22338	1321.02242	708.24932	-38.62915	1357.84561	601.81828	-58.94041	1303.84631	559.51153	-56.60302	1214.36073	669.98005	-44.55041	1252.52620	566.63546	-75.30379	1228.43746	708.46007	-395.75630	1193.05602	579.56886	-359.76901	1118.66453	733.29221	-400.67937	1084.34135	612.66310	-343.58737	1309.69698	903.64085	-109.39327	1096.70512	921.34195	-174.44806	1308.02611	893.85960	-332.54857	1099.98546	923.28150	-254.25328	1180.26771	1370.55358	-208.41276	1211.00735	1335.12679	-62.74781	1231.20026	1344.52656	-339.53241	1302.76284	1301.83963	-173.23368	1304.41196	1303.64613	-215.78080	1203.73152	1224.44039	3.79926	1084.88096	1037.71331	-20.43833	1109.54115	1043.18181	40.71031	1157.43417	965.73174	69.28261	1175.66465	820.51456	81.97910	1141.85266	823.51803	102.45341	1258.97227	1253.02680	-414.86855	1256.28304	1021.43685	-427.58006	1286.03089	1057.35522	-479.40449	1384.14665	1012.19550	-465.97315	1479.83731	932.78281	-434.50920	1466.06142	913.22539	-467.17699	1232.16827	812.79901	-109.14865	1225.60331	808.30400	-316.51223	1239.18966	823.70893	-144.55524	1245.24319	827.28622	-291.81653	
116	1.15000000	1365.10283	459.76240	-88.43841	1415.13385	412.17756	-92.52162	1453.98746	80.38196	-112.76327	1408.12884	45.48695	-157.85234	1571.49832	61.13459	-94.19044	1603.90536	100.49143	-145.26961	1114.99324	458.98742	-335.37227	1104.55353	364.10132	-318.03575	890.09003	136.92572	-317.81123	818.73789	129.76894	-278.98241	959.71127	41.59126	-334.24781	1006.97221	42.05564	-276.15211	1430.63946	300.65708	-87.66594	1343.37987	402.07391	-65.46284	1350.21862	285.22787	-68.54148	1052.42241	418.78399	-365.57277	979.90186	319.53936	-373.09890	1334.53242	707.52175	-36.68795	1370.54776	600.78381	-57.28532	1316.18903	559.12061	-55.67434	1227.69225	670.16122	-43.08558	1264.86080	566.62470	-74.33128	1242.82543	707.63072	-394.79255	1208.44384	578.32411	-359.86663	1133.01006	732.10686	-399.36521	1100.01578	610.69935	-342.52603	1324.13734	903.57034	-108.12441	1111.03084	920.82423	-173.09339	1322.38310	893.17458	-331.44945	1114.30342	922.33488	-252.91196	1193.12745	1369.96923	-206.42593	1224.27162	1334.34835	-60.82227	1243.85602	1344.15679	-337.72769	1315.92991	1301.42164	-171.49386	1317.47202	1303.35911	-214.06714	1217.43838	1223.35395	5.32478	1099.47762	1036.14240	-19.83547	1123.88984	1041.60831	41.46641	1171.53342	964.19178	70.23714	1189.29268	818.80789	82.97243	1155.50705	821.93940	103.33438	1271.28371	1252.52150	-413.20969	1267.57998	1020.82233	-425.68875	1297.19146	1056.64300	-477.86775	1395.13519	1011.06690	-464.56773	1490.62740	931.42682	-433.19442	1476.81552	911.86389	-465.79352	1246.79409	812.61680	-107.61528	1240.06769	807.49637	-314.96196	1253.61293	823.65019	-142.89644	1259.65750	826.43983	-290.30613	
117	1.16000000	1377.09437	459.76047	-87.24464	1427.41541	411.11406	-92.11569	1457.90282	79.05347	-113.04429	1409.90202	46.83477	-157.72896	1574.61539	55.35777	-95.52348	1608.40018	93.59609	-146.87781	1132.29147	457.12429	-336.68909	1118.82420	362.17222	-320.91803	897.14144	141.51398	-319.82953	825.97404	138.65856	-280.47622	961.19168	41.71729	-334.47662	1008.96164	41.05796	-276.82502	1440.74871	299.32247	-87.53115	1355.85147	402.35388	-64.12486	1360.42830	285.39815	-67.18209	1068.29448	419.29137	-366.76041	991.94471	322.99645	-374.18549	1347.85453	707.23981	-34.41673	1383.03880	600.19302	-55.22926	1328.29490	559.17571	-54.31179	1240.80149	670.84689	-41.42199	1276.98999	567.12431	-73.03012	1257.66760	707.04925	-393.75197	1224.78464	577.07777	-360.27870	1147.76767	730.79559	-397.92626	1116.41780	608.46611	-341.66798	1338.47043	903.90475	-106.62860	1125.27062	920.53883	-171.86142	1336.79432	892.76663	-330.13970	1128.66077	921.62121	-251.71457	1206.02329	1369.65325	-204.38142	1237.67412	1333.81834	-58.84603	1256.44020	1344.06906	-335.92254	1329.12641	1301.32308	-169.77115	1330.52543	1303.38010	-212.36620	1231.44122	1222.46886	6.83865	1114.45104	1034.71942	-19.14315	1138.70678	1040.16985	42.26222	1186.11093	962.80233	71.15447	1203.42427	817.17464	83.81929	1169.75886	820.48653	104.12608	1283.40580	1252.25116	-411.55352	1278.56547	1020.46772	-423.69801	1308.09428	1056.14308	-476.17065	1405.82351	1009.96621	-463.21254	1500.95489	929.87444	-432.05254	1487.09397	910.36736	-464.59197	1261.30120	812.79783	-105.95105	1254.68706	806.93517	-313.28139	1267.95672	823.87177	-141.11875	1274.22166	825.87325	-288.67603	
118	1.17000000	1389.24708	460.32552	-85.57806	1439.84109	410.52371	-91.31961	1461.31310	78.14128	-112.85646	1411.70690	48.30988	-157.51469	1577.29837	50.41635	-96.29307	1612.37839	87.56061	-147.88334	1151.09591	454.93766	-338.51236	1134.77416	360.25864	-324.49777	905.56824	146.64980	-321.81596	834.83159	148.71031	-282.05848	963.04400	42.27780	-334.72524	1011.24262	40.25414	-277.46993	1450.87849	298.51191	-86.90282	1368.58808	403.19947	-62.14329	1370.74341	286.18387	-65.06940	1085.57561	419.72257	-368.24644	1005.42491	326.70136	-375.44004	1361.02591	707.51909	-31.92099	1395.48408	600.22887	-52.88856	1340.38323	559.75119	-52.50206	1253.76753	672.00968	-39.51012	1289.12231	568.10683	-71.29842	1272.99333	706.66634	-392.62402	1242.15320	575.79081	-361.01370	1162.98555	729.22313	-396.33287	1133.61713	605.83696	-341.12948	1352.61265	904.67887	-104.89823	1139.32224	920.52231	-170.74604	1351.14803	892.60406	-328.57651	1142.96007	921.15058	-250.64650	1218.93155	1369.61477	-202.31447	1251.18934	1333.54246	-56.85366	1268.95546	1344.28021	-334.14006	1342.32394	1301.54474	-168.09472	1343.55282	1303.70748	-210.70432	1245.72819	1221.79677	8.30838	1129.76991	1033.47302	-18.33831	1153.99129	1038.88909	43.10630	1201.20016	961.58130	72.02004	1218.10869	815.63946	84.52458	1184.65670	819.18407	104.83894	1295.33131	1252.23056	-409.91979	1289.19493	1020.44230	-421.59509	1318.75316	1055.89508	-474.25383	1416.22860	1008.92404	-461.89098	1510.81148	928.13915	-431.07981	1496.90823	908.76048	-463.57437	1275.58041	813.38730	-104.10945	1269.34851	806.60124	-311.41889	1282.10807	824.41730	-139.18606	1288.83153	825.58118	-286.87018	
119	1.18000000	1401.58952	461.35262	-83.52318	1452.20953	410.27368	-90.15845	1464.10370	77.55092	-112.36961	1413.37823	49.74625	-157.24582	1579.44671	46.45730	-96.57097	1615.64286	82.46259	-148.40469	1171.49694	452.37140	-340.84401	1152.54930	358.31239	-328.56716	915.56618	152.46484	-323.67897	845.60987	160.00012	-283.62223	965.40650	43.59243	-334.98846	1013.88373	39.82168	-278.07772	1460.76322	298.08358	-85.85794	1381.34417	404.49135	-59.65861	1380.85034	287.47434	-62.40353	1104.46629	420.00805	-370.00828	1020.61139	330.54251	-376.78686	1374.10228	708.38940	-29.32959	1408.02855	600.96974	-50.43509	1352.65583	560.84232	-50.28148	1266.68126	673.55179	-37.28205	1301.42727	569.46171	-69.05732	1288.80001	706.39775	-391.42036	1260.58505	574.43701	-362.03749	1178.67352	727.24534	-394.55133	1151.67828	602.67767	-340.96905	1366.48191	905.89338	-102.94741	1153.09082	920.80015	-169.74624	1365.32783	892.62985	-326.72923	1157.08874	920.92359	-249.68736	1231.82542	1369.84358	-200.26445	1264.78902	1333.51628	-54.88615	1281.40826	1344.78872	-332.40090	1355.48886	1302.05932	-166.49561	1356.53002	1304.31270	-209.10906	1260.27313	1221.34514	9.70320	1145.39825	1032.42647	-17.41659	1169.72878	1037.78134	44.00153	1216.83264	960.54344	72.81475	1233.39787	814.24090	85.09225	1200.25305	818.05400	105.47706	1307.06650	1252.46593	-408.32764	1299.44221	1020.81109	-419.36398	1329.18840	1055.93487	-472.09875	1426.35961	1007.96298	-460.59435	1520.18864	926.23648	-430.27701	1506.25616	907.06304	-462.74165	1289.51815	814.40417	-102.05810	1283.91974	806.45671	-309.33562	1295.96452	825.30957	-137.06529	1303.35275	825.54034	-284.83138	
120	1.19000000	1413.99767	462.65562	-81.22037	1464.25465	410.20213	-88.72202	1466.26899	77.20399	-111.77485	1414.78358	51.01912	-156.93993	1581.05206	43.51492	-96.52558	1618.09869	78.26874	-148.65405	1193.50197	449.42596	-343.62187	1172.14263	356.25881	-332.82221	927.30165	159.07091	-325.32758	858.61263	172.52367	-285.00426	968.43540	46.03190	-335.25637	1016.99313	39.98322	-278.67010	1470.14804	297.87470	-84.54248	1393.80960	406.03827	-56.88789	1390.45357	289.09474	-59.46768	1125.12863	420.08005	-372.00699	1037.71523	334.37549	-378.14439	1387.12341	709.76505	-26.76658	1420.71104	602.32891	-48.05147	1365.19226	562.34892	-47.73666	1279.59496	675.33192	-34.68236	1313.94291	571.03054	-66.29937	1305.04181	706.15593	-390.17456	1280.05984	573.02551	-363.27992	1194.77944	724.76374	-392.56880	1170.62330	598.89545	-341.18122	1380.00329	907.49417	-100.81456	1166.50464	921.37359	-168.86478	1379.22522	892.77101	-324.59436	1170.92775	920.93118	-248.81497	1244.67867	1370.30919	-198.27093	1278.44293	1333.72371	-52.98702	1293.80238	1345.57008	-330.72324	1368.58506	1302.81541	-165.00487	1369.43015	1305.14160	-207.60862	1275.03487	1221.11430	10.99741	1161.29034	1031.58970	-16.39062	1185.88642	1036.85101	44.94554	1233.02340	959.69817	73.51824	1249.33248	813.02748	85.51772	1216.59063	817.11104	106.03543	1318.63184	1252.95149	-406.79670	1309.32176	1021.60780	-416.99580	1339.42425	1056.27593	-469.74401	1436.21720	1007.09066	-459.32787	1529.08848	924.18291	-429.64843	1515.11904	905.28597	-462.09303	1303.00847	815.81912	-99.79739	1298.25967	806.45246	-307.02598	1309.45185	826.52872	-134.73794	1317.62506	825.71180	-282.52016	
